<?xml version="1.0" encoding="UTF-8" standalone="no"?>
<!-- Generator: Adobe Illustrator 26.0.1, SVG Export Plug-In . SVG Version: 6.00 Build 0)  -->

<svg
   version="1.1"
   id="Layer_1"
   x="0px"
   y="0px"
   viewBox="0 0 612 792"
   style="enable-background:new 0 0 612 792;"
   xml:space="preserve"
   sodipodi:docname="Maille 1 V2.svg"
   inkscape:version="1.3 (0e150ed6c4, 2023-07-21)"
   xmlns:inkscape="http://www.inkscape.org/namespaces/inkscape"
   xmlns:sodipodi="http://sodipodi.sourceforge.net/DTD/sodipodi-0.dtd"
   xmlns="http://www.w3.org/2000/svg"
   xmlns:svg="http://www.w3.org/2000/svg"><defs
   id="defs10" /><sodipodi:namedview
   id="namedview10"
   pagecolor="#ffffff"
   bordercolor="#000000"
   borderopacity="0.25"
   inkscape:showpageshadow="2"
   inkscape:pageopacity="0.0"
   inkscape:pagecheckerboard="0"
   inkscape:deskcolor="#d1d1d1"
   showgrid="false"
   inkscape:zoom="2.8427119"
   inkscape:cx="254.3346"
   inkscape:cy="503.74433"
   inkscape:window-width="1920"
   inkscape:window-height="992"
   inkscape:window-x="-8"
   inkscape:window-y="-8"
   inkscape:window-maximized="1"
   inkscape:current-layer="Layer_1" />&#10;<style
   type="text/css"
   id="style1">&#10;	.st0{fill:none;stroke:#000000;stroke-miterlimit:10;}&#10;</style>&#10;<path
   class="st0"
   d="M424.5,145.9"
   id="path1" />&#10;<path
   class="st0"
   d="M242.7,552c6.3,5.9,18.9-2.2,41-6.8c18.5-3.9,30.7-2.2,33.1-9c0.8-2.3,0.1-4.5,0-5c-1.8-5-8.9-7.6-32.2-10.4  c-22.5-2.7-32-2.6-35.5-8.6c-0.2-0.4-1.8-3.4-0.2-7.1c2.5-5.8,11.2-6.8,34.9-9.6c20.8-2.5,31.2-3.9,33.4-9.7  c0.2-0.5,0.9-2.5,0.2-4.7c-1.5-5-8.7-7.6-33.4-10.8c-22.6-2.9-32.4-3.2-35.6-9.2c-0.3-0.5-1.1-3.3,0.2-6.7  c2.5-6.4,12.5-6.5,36.7-9.4c21-2.5,29.5-4.1,31.6-9.7c0.2-0.4,0.9-2.6,0.1-5c-1.7-5.1-9.2-7.4-33.5-10.4c-22-2.7-31.6-2.8-34.7-9.1  c-0.1-0.3-1.8-3.7-0.2-7.3c2.5-5.7,11.5-6.2,34.2-8.6c22-2.4,29.6-3.8,31.9-9c1.4-3.4-0.1-6.8-0.2-7c-2.4-5.2-9.6-6.6-31-9  c-21.8-2.5-31.4-3.5-34.8-9.6c-0.5-0.9-1.2-3.8,0.1-6.9c2.5-5.9,13.2-5.2,35.1-7.6c26.6-2.9,31.6-6.2,32.9-10.1  c1.1-3.2-0.5-6.3-0.7-6.8c-3.1-5.9-11.6-6.2-30.5-8c-22-2.1-25-0.2-29.8-4c-2.5-2-6.3-6.2-14-14.7c-4.1-4.5-3.7-4.3-4.2-4.7  c-7.2-5.9-17.6-0.6-38,4c-22.6,5.1-35.2,4.4-37.5,11.9c-0.2,0.6-0.8,2.6,0,4.8c2.3,6.1,13,5.9,32.8,8.8c31.7,4.6,35,9.7,35.7,12.6  c0.1,0.4,0.4,1.9-0.2,3.7c-2,5.8-11.8,6.5-33.2,9c-23.5,2.8-32.3,4.4-34.5,10.1c-0.2,0.5-0.9,2.4-0.3,4.5c1.6,5.6,11,7.2,29.6,10.3  c27.1,4.4,37.5,6,39.1,12c0.5,1.9-0.1,3.5-0.2,4c-2.2,6.1-12.7,6.4-31.5,8.8c-29,3.7-35.5,6.8-36.9,11.3c-0.6,2,0,3.9,0.1,4.3  c2.2,6.1,12.7,6.4,29.3,8.8c36,5.2,38.4,11.4,38.9,13.3c0.4,1.8-0.1,3.4-0.3,3.8c-2.3,6.1-12.8,6.4-34.6,9.1  c-22.6,2.8-29.6,4.8-31.6,9.9c-0.1,0.3-1.1,3,0,5.7c2.4,5.9,11.8,6.3,31.3,9c26.4,3.7,33.5,6.6,35.1,11.7c0.2,0.5,0.8,2.5,0,4.6  c-2.1,6-12.7,6.4-34.5,9.1c-24.2,3-31.8,5.2-33.8,10.5c-0.2,0.5-1,2.7-0.2,5c1.8,5.3,9.8,6.6,33.9,9.9c0,0,28.7,3.9,33.5,9.7  c0.2,0.3,2.5,3.1,6,6.7c0,0,0,0,0,0C237.1,545.8,239.2,548.6,242.7,552C242.7,551.9,242.7,552,242.7,552z"
   id="path2" />&#10;<path
   class="st0"
   d="M337.5,365.6"
   id="path3" />&#10;<path
   class="st0"
   d="m 339.38277,364.22225 c -8.47029,6.53691 -16.94059,13.07382 -25.51676,19.61073"
   id="path4"
   style="stroke-width:1.05656" />&#10;<path
   class="st0"
   d="m 168.14785,467.05644 c -7.98042,5.71369 -16.06058,11.42737 -24.041,17.14106"
   id="path5"
   style="stroke-width:0.958805" />&#10;<path
   class="st0"
   d="M239,299"
   id="path6" />&#10;<path
   class="st0"
   d="M252.3,305.1"
   id="path7" />&#10;&#10;&#10;<path
   class="st0"
   d="M192.4,559.6"
   id="path10" />&#10;<path
   class="st0"
   d="m 247.837,287.41822 c -8.47029,6.53691 -16.94059,13.07382 -25.51676,19.61073"
   id="path4-5"
   style="fill:none;stroke:#000000;stroke-width:1.05656;stroke-miterlimit:10" /><path
   class="st0"
   d="m 246.54233,535.29989 c -6.03403,7.37666 -12.06808,14.75332 -18.17754,22.12998"
   id="path4-1"
   style="fill:none;stroke:#000000;stroke-width:0.947311;stroke-miterlimit:10" /></svg>
