<?xml version="1.0" encoding="UTF-8" standalone="no"?>
<!-- Created with Inkscape (http://www.inkscape.org/) -->

<svg
   width="210mm"
   height="297mm"
   viewBox="0 0 210 297"
   version="1.1"
   id="svg1"
   xml:space="preserve"
   inkscape:version="1.3 (0e150ed6c4, 2023-07-21)"
   sodipodi:docname="S1_Ultimaster_Nagomi.svg"
   xmlns:inkscape="http://www.inkscape.org/namespaces/inkscape"
   xmlns:sodipodi="http://sodipodi.sourceforge.net/DTD/sodipodi-0.dtd"
   xmlns="http://www.w3.org/2000/svg"
   xmlns:svg="http://www.w3.org/2000/svg"><sodipodi:namedview
     id="namedview1"
     pagecolor="#ffffff"
     bordercolor="#000000"
     borderopacity="0.25"
     inkscape:showpageshadow="2"
     inkscape:pageopacity="0.0"
     inkscape:pagecheckerboard="0"
     inkscape:deskcolor="#d1d1d1"
     inkscape:document-units="mm"
     inkscape:zoom="5.2309237"
     inkscape:cx="195.281"
     inkscape:cy="347.45298"
     inkscape:window-width="1366"
     inkscape:window-height="715"
     inkscape:window-x="-8"
     inkscape:window-y="-8"
     inkscape:window-maximized="1"
     inkscape:current-layer="layer1" /><defs
     id="defs1" /><g
     inkscape:label="Layer 1"
     inkscape:groupmode="layer"
     id="layer1"><path
       style="fill:none;fill-rule:evenodd;stroke:#000000;stroke-width:0.665001;paint-order:fill markers stroke"
       d="m 52.361271,91.417628 c 2.380435,-0.338694 0.623826,-2.960038 4.291907,-4.005778 3.295119,-0.793213 5.003376,-0.03315 14.789198,-0.393428 1.895964,0.12356 1.933523,3.853356 0.08942,4.113081 -6.705201,0.504467 -11.224909,-1.055048 -13.018785,1.430633 -0.63793,0.784434 -1.018126,2.707327 0.01736,3.546961 7.609687,5.622433 6.451381,5.719593 11.141602,9.185703 0.811939,0.67924 2.827183,-0.0747 3.540825,1.46639 0.375045,1.08342 0.350706,1.97633 -0.107298,3.11164 -1.403395,2.34851 -9.452797,0.08 -14.280322,2.44076 -0.769176,0.29983 -1.403389,2.04616 -0.202323,2.85259 1.974282,1.14517 9.02623,0.009 13.624262,0.42919 2.26328,0.32207 1.982905,4.23367 0.143066,4.29191 -4.530348,0.23844 -11.861317,-0.89403 -13.135817,0.46242 -1.077671,1.0305 -0.505553,3.20689 0.369931,3.52601 2.280237,1.04176 10.27541,-0.59931 12.908949,0.87573 1.252712,0.7257 1.426638,3.67631 0.26009,4.09827 -5.23895,1.37646 -4.640271,3.97877 -11.797659,9.66039 -0.953587,0.49604 -1.830604,0.0147 -2.406048,1.14451 -0.333641,0.48777 -0.755811,2.2505 0.05777,3.23987 1.954828,2.09051 10.401317,0.71907 14.171973,2.31506 1.185205,0.60264 1.070497,3.08144 -0.286125,3.29046 -3.384957,0.34271 -8.201758,-0.28617 -12.303469,-0.42919 -2.510602,-0.0157 -1.867994,3.36907 -4.864161,4.00578 -6.489369,0.57545 -14.901815,1.22058 -16.645957,-0.1691 -0.970504,-0.79904 -0.660625,-2.95588 0.479773,-3.26443 2.739609,-0.6576 9.428955,0.49534 13.877165,-0.57225 1.305313,-0.33599 1.145437,-2.45406 0.143066,-2.86127 -2.35965,-1.59886 -11.374596,-0.22408 -14.30636,-2.00289 -1.156969,-0.59693 -1.398069,-2.14539 -0.429191,-3.1474 2.030189,-2.01875 8.062407,-6.1583 11.445086,-10.30058 0.990995,-1.00397 1.943112,-0.83337 2.575145,-1.14451 1.344607,-0.70508 1.152341,-2.4806 0,-3.1474 -2.205892,-1.54579 -9.120515,-0.572 -13.271689,-1.87718 -1.580105,-0.45051 -1.433398,-2.69441 -0.462414,-3.41617 2.433938,-1.87082 12.799138,0.63994 14.592485,-1.12662 0.680507,-0.74718 0.591322,-2.11174 -0.160945,-2.68298 -1.20981,-1.10242 -11.344213,0.30346 -13.898121,-0.97072 -1.254661,-0.60565 -0.70609,-2.69964 0.01429,-3.10404 1.753609,-1.53534 12.976272,-0.63049 14.18784,-2.44226 0.413606,-0.52015 0.826435,-1.93065 -0.176288,-2.74994 -4.196518,-2.68954 -8.097466,-8.493077 -13.531785,-11.193668 -1.475123,-0.986732 -0.973837,-3.352344 -0.1691,-3.770234 1.405177,-0.795755 6.106061,-0.245773 12.732659,-0.71532 z"
       id="path1"
       sodipodi:nodetypes="ccccccccccccccccccccccccccccccccccccccccccccc" /><path
       style="fill:none;fill-rule:evenodd;stroke:#000000;stroke-width:0.665001;paint-order:fill markers stroke"
       d="m 39.199976,121.79812 c -2.030635,-0.96544 -3.428872,-1.86833 -6.271996,-3.89471"
       id="path2"
       sodipodi:nodetypes="cc" /><path
       style="fill:none;fill-rule:evenodd;stroke:#000000;stroke-width:0.665001;paint-order:fill markers stroke"
       d="m 78.913947,121.5591 c -2.20127,-1.13233 -4.260351,-2.47794 -6.271996,-3.89471"
       id="path2-3"
       sodipodi:nodetypes="cc" /><path
       style="fill:none;fill-rule:evenodd;stroke:#000000;stroke-width:0.665001;paint-order:fill markers stroke"
       d="m 54.981128,86.543429 c 0.524406,0.973824 0.546558,2.14855 1.669161,2.883096"
       id="path3"
       sodipodi:nodetypes="cc" /><path
       style="fill:none;fill-rule:evenodd;stroke:#000000;stroke-width:0.665001;paint-order:fill markers stroke"
       d="m 55.056505,150.18567 c 0.55602,0.96113 0.570912,2.05754 1.669161,2.88311"
       id="path3-5"
       sodipodi:nodetypes="cc" /></g></svg>
